<mxfile host="app.diagrams.net" agent="Mozilla/5.0 (Macintosh; Intel Mac OS X 10_15_7) AppleWebKit/537.36 (KHTML, like Gecko) Chrome/133.0.0.0 Safari/537.36" version="26.2.4">
  <diagram name="Page-1" id="w5iG2ojHEXGaHr84VCRa">
    <mxGraphModel dx="356" dy="545" grid="1" gridSize="10" guides="1" tooltips="1" connect="1" arrows="1" fold="1" page="1" pageScale="1" pageWidth="827" pageHeight="1169" math="0" shadow="0">
      <root>
        <mxCell id="0" />
        <mxCell id="1" parent="0" />
        <mxCell id="s7o1FjsXuUxL3naeGWY7-1" value="ap-south-1" style="points=[[0,0],[0.25,0],[0.5,0],[0.75,0],[1,0],[1,0.25],[1,0.5],[1,0.75],[1,1],[0.75,1],[0.5,1],[0.25,1],[0,1],[0,0.75],[0,0.5],[0,0.25]];outlineConnect=0;gradientColor=none;html=1;whiteSpace=wrap;fontSize=12;fontStyle=0;container=1;pointerEvents=0;collapsible=0;recursiveResize=0;shape=mxgraph.aws4.group;grIcon=mxgraph.aws4.group_region;strokeColor=#00A4A6;fillColor=none;verticalAlign=top;align=left;spacingLeft=30;fontColor=#147EBA;dashed=1;" vertex="1" parent="1">
          <mxGeometry x="150" y="140" width="750" height="530" as="geometry" />
        </mxCell>
        <mxCell id="s7o1FjsXuUxL3naeGWY7-2" value="VPC" style="points=[[0,0],[0.25,0],[0.5,0],[0.75,0],[1,0],[1,0.25],[1,0.5],[1,0.75],[1,1],[0.75,1],[0.5,1],[0.25,1],[0,1],[0,0.75],[0,0.5],[0,0.25]];outlineConnect=0;gradientColor=none;html=1;whiteSpace=wrap;fontSize=12;fontStyle=0;container=1;pointerEvents=0;collapsible=0;recursiveResize=0;shape=mxgraph.aws4.group;grIcon=mxgraph.aws4.group_vpc2;strokeColor=#8C4FFF;fillColor=none;verticalAlign=top;align=left;spacingLeft=30;fontColor=#AAB7B8;dashed=0;" vertex="1" parent="1">
          <mxGeometry x="180" y="170" width="610" height="480" as="geometry" />
        </mxCell>
        <mxCell id="s7o1FjsXuUxL3naeGWY7-4" value="Availability Zone" style="fillColor=none;strokeColor=#147EBA;dashed=1;verticalAlign=top;fontStyle=0;fontColor=#147EBA;whiteSpace=wrap;html=1;" vertex="1" parent="s7o1FjsXuUxL3naeGWY7-2">
          <mxGeometry x="360" y="40" width="240" height="410" as="geometry" />
        </mxCell>
        <mxCell id="s7o1FjsXuUxL3naeGWY7-3" value="Availability Zone" style="fillColor=none;strokeColor=#147EBA;dashed=1;verticalAlign=top;fontStyle=0;fontColor=#147EBA;whiteSpace=wrap;html=1;" vertex="1" parent="s7o1FjsXuUxL3naeGWY7-2">
          <mxGeometry x="10" y="40" width="240" height="410" as="geometry" />
        </mxCell>
        <mxCell id="s7o1FjsXuUxL3naeGWY7-5" value="" style="sketch=0;points=[[0,0,0],[0.25,0,0],[0.5,0,0],[0.75,0,0],[1,0,0],[0,1,0],[0.25,1,0],[0.5,1,0],[0.75,1,0],[1,1,0],[0,0.25,0],[0,0.5,0],[0,0.75,0],[1,0.25,0],[1,0.5,0],[1,0.75,0]];outlineConnect=0;fontColor=#232F3E;fillColor=#ED7100;strokeColor=#ffffff;dashed=0;verticalLabelPosition=bottom;verticalAlign=top;align=center;html=1;fontSize=12;fontStyle=0;aspect=fixed;shape=mxgraph.aws4.resourceIcon;resIcon=mxgraph.aws4.eks_cloud;" vertex="1" parent="s7o1FjsXuUxL3naeGWY7-2">
          <mxGeometry x="280" y="20" width="50" height="50" as="geometry" />
        </mxCell>
        <mxCell id="s7o1FjsXuUxL3naeGWY7-6" value="EKS Control Plane" style="text;html=1;align=center;verticalAlign=middle;whiteSpace=wrap;rounded=0;" vertex="1" parent="s7o1FjsXuUxL3naeGWY7-2">
          <mxGeometry x="260" y="80" width="90" height="30" as="geometry" />
        </mxCell>
        <mxCell id="s7o1FjsXuUxL3naeGWY7-9" value="Public subnet" style="points=[[0,0],[0.25,0],[0.5,0],[0.75,0],[1,0],[1,0.25],[1,0.5],[1,0.75],[1,1],[0.75,1],[0.5,1],[0.25,1],[0,1],[0,0.75],[0,0.5],[0,0.25]];outlineConnect=0;gradientColor=none;html=1;whiteSpace=wrap;fontSize=12;fontStyle=0;container=1;pointerEvents=0;collapsible=0;recursiveResize=0;shape=mxgraph.aws4.group;grIcon=mxgraph.aws4.group_security_group;grStroke=0;strokeColor=#7AA116;fillColor=#F2F6E8;verticalAlign=top;align=left;spacingLeft=30;fontColor=#248814;dashed=0;" vertex="1" parent="s7o1FjsXuUxL3naeGWY7-2">
          <mxGeometry x="20" y="90" width="220" height="150" as="geometry" />
        </mxCell>
        <mxCell id="s7o1FjsXuUxL3naeGWY7-12" value="" style="sketch=0;outlineConnect=0;fontColor=#232F3E;gradientColor=none;fillColor=#8C4FFF;strokeColor=none;dashed=0;verticalLabelPosition=bottom;verticalAlign=top;align=center;html=1;fontSize=12;fontStyle=0;aspect=fixed;pointerEvents=1;shape=mxgraph.aws4.nat_gateway;" vertex="1" parent="s7o1FjsXuUxL3naeGWY7-9">
          <mxGeometry x="10" y="53" width="44" height="44" as="geometry" />
        </mxCell>
        <mxCell id="s7o1FjsXuUxL3naeGWY7-13" value="NAT Gateway" style="text;html=1;align=center;verticalAlign=middle;whiteSpace=wrap;rounded=0;" vertex="1" parent="s7o1FjsXuUxL3naeGWY7-9">
          <mxGeometry x="2" y="105" width="60" height="30" as="geometry" />
        </mxCell>
        <mxCell id="s7o1FjsXuUxL3naeGWY7-11" value="Public subnet" style="points=[[0,0],[0.25,0],[0.5,0],[0.75,0],[1,0],[1,0.25],[1,0.5],[1,0.75],[1,1],[0.75,1],[0.5,1],[0.25,1],[0,1],[0,0.75],[0,0.5],[0,0.25]];outlineConnect=0;gradientColor=none;html=1;whiteSpace=wrap;fontSize=12;fontStyle=0;container=1;pointerEvents=0;collapsible=0;recursiveResize=0;shape=mxgraph.aws4.group;grIcon=mxgraph.aws4.group_security_group;grStroke=0;strokeColor=#7AA116;fillColor=#F2F6E8;verticalAlign=top;align=left;spacingLeft=30;fontColor=#248814;dashed=0;" vertex="1" parent="s7o1FjsXuUxL3naeGWY7-2">
          <mxGeometry x="370" y="90" width="220" height="150" as="geometry" />
        </mxCell>
        <mxCell id="s7o1FjsXuUxL3naeGWY7-14" value="" style="sketch=0;outlineConnect=0;fontColor=#232F3E;gradientColor=none;fillColor=#8C4FFF;strokeColor=none;dashed=0;verticalLabelPosition=bottom;verticalAlign=top;align=center;html=1;fontSize=12;fontStyle=0;aspect=fixed;pointerEvents=1;shape=mxgraph.aws4.nat_gateway;" vertex="1" parent="s7o1FjsXuUxL3naeGWY7-11">
          <mxGeometry x="158" y="53" width="44" height="44" as="geometry" />
        </mxCell>
        <mxCell id="s7o1FjsXuUxL3naeGWY7-15" value="NAT Gateway" style="text;html=1;align=center;verticalAlign=middle;whiteSpace=wrap;rounded=0;" vertex="1" parent="s7o1FjsXuUxL3naeGWY7-2">
          <mxGeometry x="520" y="192" width="60" height="30" as="geometry" />
        </mxCell>
        <mxCell id="s7o1FjsXuUxL3naeGWY7-16" value="" style="rounded=1;arcSize=10;dashed=1;strokeColor=#666666;fillColor=#f5f5f5;dashPattern=8 4;strokeWidth=2;fillStyle=solid;fontColor=#333333;" vertex="1" parent="s7o1FjsXuUxL3naeGWY7-2">
          <mxGeometry x="110" y="130" width="390" height="100" as="geometry" />
        </mxCell>
        <mxCell id="s7o1FjsXuUxL3naeGWY7-19" value="" style="sketch=0;outlineConnect=0;fontColor=#232F3E;gradientColor=none;fillColor=#8C4FFF;strokeColor=none;dashed=0;verticalLabelPosition=bottom;verticalAlign=top;align=center;html=1;fontSize=12;fontStyle=0;aspect=fixed;pointerEvents=1;shape=mxgraph.aws4.application_load_balancer;" vertex="1" parent="s7o1FjsXuUxL3naeGWY7-2">
          <mxGeometry x="280" y="155" width="50" height="50" as="geometry" />
        </mxCell>
        <mxCell id="s7o1FjsXuUxL3naeGWY7-20" value="ALB" style="text;html=1;align=center;verticalAlign=middle;whiteSpace=wrap;rounded=0;" vertex="1" parent="s7o1FjsXuUxL3naeGWY7-2">
          <mxGeometry x="275" y="200" width="60" height="30" as="geometry" />
        </mxCell>
        <mxCell id="s7o1FjsXuUxL3naeGWY7-21" value="&lt;font style=&quot;color: light-dark(rgb(242, 158, 90), rgb(237, 237, 237));&quot; face=&quot;Georgia&quot;&gt;&lt;b style=&quot;&quot;&gt;Ingress&lt;/b&gt;&lt;/font&gt;" style="text;html=1;align=center;verticalAlign=middle;whiteSpace=wrap;rounded=0;" vertex="1" parent="s7o1FjsXuUxL3naeGWY7-2">
          <mxGeometry x="110" y="130" width="60" height="30" as="geometry" />
        </mxCell>
        <mxCell id="s7o1FjsXuUxL3naeGWY7-22" value="Private subnet" style="points=[[0,0],[0.25,0],[0.5,0],[0.75,0],[1,0],[1,0.25],[1,0.5],[1,0.75],[1,1],[0.75,1],[0.5,1],[0.25,1],[0,1],[0,0.75],[0,0.5],[0,0.25]];outlineConnect=0;gradientColor=none;html=1;whiteSpace=wrap;fontSize=12;fontStyle=0;container=1;pointerEvents=0;collapsible=0;recursiveResize=0;shape=mxgraph.aws4.group;grIcon=mxgraph.aws4.group_security_group;grStroke=0;strokeColor=#00A4A6;fillColor=#E6F6F7;verticalAlign=top;align=left;spacingLeft=30;fontColor=#147EBA;dashed=0;" vertex="1" parent="s7o1FjsXuUxL3naeGWY7-2">
          <mxGeometry x="20" y="250" width="220" height="190" as="geometry" />
        </mxCell>
        <mxCell id="s7o1FjsXuUxL3naeGWY7-23" value="Private subnet" style="points=[[0,0],[0.25,0],[0.5,0],[0.75,0],[1,0],[1,0.25],[1,0.5],[1,0.75],[1,1],[0.75,1],[0.5,1],[0.25,1],[0,1],[0,0.75],[0,0.5],[0,0.25]];outlineConnect=0;gradientColor=none;html=1;whiteSpace=wrap;fontSize=12;fontStyle=0;container=1;pointerEvents=0;collapsible=0;recursiveResize=0;shape=mxgraph.aws4.group;grIcon=mxgraph.aws4.group_security_group;grStroke=0;strokeColor=#00A4A6;fillColor=#E6F6F7;verticalAlign=top;align=left;spacingLeft=30;fontColor=#147EBA;dashed=0;" vertex="1" parent="s7o1FjsXuUxL3naeGWY7-2">
          <mxGeometry x="370" y="250" width="220" height="190" as="geometry" />
        </mxCell>
      </root>
    </mxGraphModel>
  </diagram>
</mxfile>
